<?xml version="1.0" encoding="UTF-8"?>
<svg width="476px" height="278px" viewBox="0 0 476 278" version="1.1" xmlns="http://www.w3.org/2000/svg" xmlns:xlink="http://www.w3.org/1999/xlink">
    <!-- Generator: Sketch 52.5 (67469) - http://www.bohemiancoding.com/sketch -->
    <title>Group 17</title>
    <desc>Created with Sketch.</desc>
    <defs>
        <linearGradient x1="28.6345504%" y1="81.5795844%" x2="54.0884781%" y2="0%" id="linearGradient-1">
            <stop stop-color="#4114E7" offset="0%"></stop>
            <stop stop-color="#000000" offset="100%"></stop>
        </linearGradient>
        <linearGradient x1="100%" y1="76.5648147%" x2="-46.4692331%" y2="27.1625816%" id="linearGradient-2">
            <stop stop-color="#5228EE" stop-opacity="0" offset="0%"></stop>
            <stop stop-color="#7853FF" offset="100%"></stop>
        </linearGradient>
        <linearGradient x1="100%" y1="88.9036012%" x2="0%" y2="87.3753984%" id="linearGradient-3">
            <stop stop-color="#4B25DB" stop-opacity="0" offset="0%"></stop>
            <stop stop-color="#5A36DF" offset="49.4130735%"></stop>
            <stop stop-color="#572AFD" stop-opacity="0" offset="100%"></stop>
        </linearGradient>
        <linearGradient x1="28.6345504%" y1="81.5795844%" x2="54.0884781%" y2="0%" id="linearGradient-4">
            <stop stop-color="#582BFF" offset="0%"></stop>
            <stop stop-color="#000000" offset="100%"></stop>
        </linearGradient>
        <linearGradient x1="56.9374914%" y1="11.721342%" x2="36.4338834%" y2="95.6597936%" id="linearGradient-5">
            <stop stop-color="#000000" offset="0%"></stop>
            <stop stop-color="#99A7FF" offset="100%"></stop>
        </linearGradient>
        <filter x="-0.7%" y="-1.1%" width="101.3%" height="102.2%" filterUnits="objectBoundingBox" id="filter-6">
            <feGaussianBlur stdDeviation="0.96" in="SourceGraphic"></feGaussianBlur>
        </filter>
        <path d="M289.708015,22.3578165 L351.075936,58.7565905 C356.776119,62.1375042 358.656257,69.4991871 355.275344,75.1993694 C354.191626,77.0265051 352.642293,78.5332044 350.785637,79.5655306 L147.154251,192.787366 C139.693328,196.935741 130.590404,196.808749 123.248107,192.453858 L61.8801854,156.055084 C56.180003,152.674171 54.2998643,145.312488 57.6807781,139.612306 C58.7644957,137.78517 60.3138288,136.278471 62.1704848,135.246144 L265.80187,22.0243089 C273.262794,17.8759335 282.365718,18.0029257 289.708015,22.3578165 Z" id="path-7"></path>
        <filter x="-6.5%" y="-5.9%" width="113.0%" height="122.1%" filterUnits="objectBoundingBox" id="filter-8">
            <feOffset dx="0" dy="9" in="SourceAlpha" result="shadowOffsetOuter1"></feOffset>
            <feGaussianBlur stdDeviation="5" in="shadowOffsetOuter1" result="shadowBlurOuter1"></feGaussianBlur>
            <feColorMatrix values="0 0 0 0 0.118902166   0 0 0 0 0   0 0 0 0 0.564785289  0 0 0 0.300243433 0" type="matrix" in="shadowBlurOuter1"></feColorMatrix>
        </filter>
        <linearGradient x1="58.0410669%" y1="-10.0589902%" x2="14.6094259%" y2="89.0967871%" id="linearGradient-9">
            <stop stop-color="#000000" offset="0%"></stop>
            <stop stop-color="#730090" offset="100%"></stop>
        </linearGradient>
        <linearGradient x1="56.899984%" y1="-1.98682417%" x2="14.6094259%" y2="89.0967871%" id="linearGradient-10">
            <stop stop-color="#000000" offset="0%"></stop>
            <stop stop-color="#A900D2" offset="100%"></stop>
        </linearGradient>
        <filter x="-160.0%" y="-160.0%" width="420.0%" height="420.0%" filterUnits="objectBoundingBox" id="filter-11">
            <feGaussianBlur stdDeviation="8" in="SourceGraphic"></feGaussianBlur>
        </filter>
        <filter x="-342.9%" y="-342.9%" width="785.7%" height="785.7%" filterUnits="objectBoundingBox" id="filter-12">
            <feGaussianBlur stdDeviation="8" in="SourceGraphic"></feGaussianBlur>
        </filter>
        <linearGradient x1="65.5063802%" y1="-8.79111397%" x2="14.6094259%" y2="89.0967871%" id="linearGradient-13">
            <stop stop-color="#000000" offset="0%"></stop>
            <stop stop-color="#CE00FF" offset="100%"></stop>
        </linearGradient>
        <linearGradient x1="88.5544263%" y1="91.3309471%" x2="0%" y2="1.60133594%" id="linearGradient-14">
            <stop stop-color="#FFFFFF" offset="0%"></stop>
            <stop stop-color="#0E0011" offset="100%"></stop>
        </linearGradient>
        <path d="M114.921629,93.4698337 C115.362865,93.2081192 115.705102,92.9221626 115.948348,92.6119555 C116.191594,92.3017483 116.324528,91.9872845 116.347156,91.6685547 C116.369783,91.3498248 116.279275,91.035153 116.075627,90.72453 C115.871979,90.413907 115.538228,90.1240448 115.074364,89.8549348 C114.610499,89.5858248 114.104216,89.3883427 113.555498,89.2624824 C113.006781,89.1366222 112.449586,89.0755301 111.883898,89.0792044 C111.31821,89.0828786 110.763843,89.1528498 110.220783,89.28912 C109.677722,89.4253902 109.185581,89.6243796 108.744344,89.8860941 C108.303107,90.1478087 107.969356,90.4386879 107.74308,90.7587405 C107.516805,91.0787932 107.403669,91.4047432 107.403669,91.7366004 C107.403669,92.0684576 107.513977,92.3946155 107.734595,92.7150841 C107.955214,93.0355526 108.29745,93.3303374 108.761314,93.5994474 C109.225179,93.8685574 109.722977,94.0611169 110.254724,94.1771317 C110.786471,94.2931464 111.323867,94.3427523 111.866927,94.3259507 C112.409988,94.3091491 112.944555,94.2276917 113.470645,94.081576 C113.996735,93.9354603 114.480392,93.7315483 114.921629,93.4698337 Z M111.64631,86.9104123 L112.766367,87.5602113 L111.442663,88.345351 L111.476604,88.3650419 C111.929155,88.3090053 112.376042,88.2961471 112.817279,88.3264669 C113.258516,88.3567867 113.677119,88.4138011 114.0731,88.497512 C114.469082,88.5812229 114.839602,88.6899868 115.184672,88.8238069 C115.529742,88.957627 115.832381,89.1000171 116.092597,89.2509812 C116.714854,89.6119824 117.178712,90.0038737 117.484184,90.4266668 C117.789655,90.8494599 117.942389,91.2798757 117.942389,91.7179272 C117.942389,92.1559788 117.792484,92.586701 117.492669,93.0101071 C117.192854,93.4335131 116.743139,93.8230419 116.143509,94.1787053 C115.543879,94.5343686 114.884863,94.8024716 114.166438,94.9830223 C113.448014,95.1635729 112.715459,95.2562719 111.968751,95.2611219 C111.222042,95.265972 110.486658,95.1811484 109.762577,95.0066486 C109.038496,94.8321487 108.365338,94.5644023 107.74308,94.203401 C107.482864,94.0524369 107.236793,93.8764942 107.004861,93.6755678 C106.772929,93.4746414 106.583426,93.258509 106.436347,93.0271643 C106.289268,92.7958196 106.187446,92.5509103 106.130877,92.2924291 C106.074308,92.0339479 106.091279,91.7716744 106.181789,91.5056008 L106.147848,91.4859099 L99.9366216,95.1700271 L98.8165645,94.5202282 L111.64631,86.9104123 Z M124.340291,96.4849581 C124.498684,96.191895 124.532624,95.9062816 124.442114,95.6281095 C124.351604,95.3499373 124.102705,95.0927092 123.695409,94.8564175 C123.503075,94.7448354 123.285289,94.645035 123.042043,94.5570135 C122.798797,94.468992 122.549898,94.4075567 122.295338,94.3727059 C122.040778,94.337855 121.791879,94.3361531 121.548633,94.3676002 C121.305387,94.3990473 121.076287,94.4785206 120.861325,94.6060226 C120.487971,94.8274734 120.346551,95.064007 120.437061,95.3156306 C120.527572,95.5672542 120.770814,95.8809339 121.166796,96.2566791 L122.032294,97.0773778 C122.462217,97.472814 122.671519,97.8895883 122.660205,98.3277133 C122.648891,98.7658383 122.360395,99.1526607 121.794706,99.4881922 C121.364783,99.7431961 120.906583,99.9120983 120.420091,99.9949039 C119.933599,100.07771 119.447114,100.094143 118.960622,100.044206 C118.474131,99.9942689 117.99896,99.887844 117.535095,99.7249283 C117.071231,99.5620126 116.646971,99.3689755 116.262303,99.1458111 C115.65136,98.7913736 115.198816,98.3927718 114.904658,97.9499937 C114.6105,97.5072157 114.559589,97.0097681 114.751923,96.4576359 L116.381097,96.626256 C116.245332,96.9722693 116.242503,97.3091177 116.372612,97.6368112 C116.50272,97.9645048 116.805359,98.2661838 117.280537,98.5418575 C117.506812,98.6731306 117.75854,98.7893032 118.035727,98.8903785 C118.312914,98.9914538 118.592926,99.0609833 118.87577,99.098969 C119.158614,99.1369548 119.438625,99.1367953 119.715813,99.0984906 C119.993,99.0601859 120.244727,98.9739286 120.471003,98.839716 C120.866984,98.6048439 121.005576,98.3500768 120.886781,98.0754069 C120.767987,97.800737 120.5502,97.5117809 120.233415,97.2085299 L119.401857,96.4274334 C119.300033,96.3285376 119.172755,96.1883272 119.020019,96.0067977 C118.867284,95.8252683 118.759804,95.6235366 118.697579,95.4015964 C118.635353,95.1796563 118.652323,94.9472495 118.74849,94.7043691 C118.844657,94.4614887 119.079415,94.2293266 119.452769,94.0078759 C119.860064,93.7662932 120.298466,93.6024974 120.767987,93.5164834 C121.237509,93.4304695 121.707023,93.4108272 122.176544,93.4575562 C122.646065,93.5042851 123.104266,93.6008646 123.55116,93.7472977 C123.998053,93.8937308 124.408171,94.0752449 124.781525,94.2918457 C125.3359,94.6134649 125.743189,94.9758569 126.003406,95.3790325 C126.263623,95.7822082 126.263623,96.213616 126.003406,96.6732691 L124.340291,96.4849581 Z M124.170585,102.539105 C123.932996,102.680029 123.636014,102.756624 123.279631,102.768895 C122.923247,102.781165 122.609295,102.708538 122.337764,102.55101 C122.066234,102.393482 121.938956,102.210131 121.955927,102.000951 C121.972897,101.79177 122.100175,101.616721 122.337764,101.475798 C122.575354,101.334875 122.872335,101.258279 123.228719,101.246009 C123.585103,101.233738 123.899055,101.306366 124.170585,101.463894 C124.442116,101.621421 124.569394,101.804773 124.552423,102.013953 C124.535452,102.223133 124.408174,102.398182 124.170585,102.539105 Z M130.466664,98.8046588 C130.229075,98.945582 129.932093,99.0221777 129.575709,99.0344482 C129.219326,99.0467188 128.905374,98.9740912 128.633843,98.8165634 C128.362313,98.6590356 128.235035,98.4756843 128.252006,98.2665041 C128.268976,98.0573238 128.396254,97.8822747 128.633843,97.7413515 C128.871432,97.6004282 129.168414,97.5238325 129.524798,97.511562 C129.881181,97.4992915 130.195134,97.571919 130.466664,97.7294468 C130.738194,97.8869747 130.865472,98.0703259 130.848502,98.2795062 C130.831531,98.4886865 130.704253,98.6637356 130.466664,98.8046588 Z M125.562171,104.660579 L124.900319,103.898292 L142.346058,99.5836866 L142.973969,100.346195 L125.562171,104.660579 Z M144.874672,107.143525 L134.115335,108.069596 L138.934975,110.865701 L137.916741,111.469655 L131.467927,107.728388 L132.282514,107.245225 L143.041851,106.319153 L138.629505,103.759339 L139.647738,103.155386 L145.689259,106.660362 L144.874672,107.143525 Z M145.264995,115.732729 C145.457329,115.5921 145.655317,115.458073 145.858964,115.330645 C146.062612,115.203216 146.271914,115.075753 146.486875,114.948251 L146.452934,114.92856 C146.113521,114.983862 145.757143,115.009406 145.383789,115.005194 C145.010434,115.000982 144.639914,114.968544 144.272217,114.90788 C143.904519,114.847215 143.55097,114.761571 143.211557,114.650944 C142.872144,114.540317 142.572333,114.409523 142.312117,114.258559 C141.293878,113.66783 140.810222,113.071978 140.861134,112.470986 C140.912046,111.869994 141.435299,111.274239 142.430911,110.683703 L147.471168,107.694133 L148.591225,108.343932 L144.195849,110.950998 C143.754612,111.212713 143.398234,111.463917 143.126704,111.704618 C142.855173,111.945318 142.68547,112.182036 142.617587,112.414777 C142.549704,112.647518 142.594959,112.87952 142.753351,113.110792 C142.911744,113.342063 143.200241,113.579123 143.61885,113.821978 C143.675419,113.854796 143.856436,113.933265 144.161908,114.057387 C144.46738,114.181508 144.866184,114.266859 145.358333,114.313441 C145.850482,114.360023 146.413333,114.328159 147.046904,114.21785 C147.680475,114.10754 148.35929,113.83765 149.083371,113.408169 L153.156306,110.992355 L154.276364,111.642154 L148.082108,115.316205 C147.867147,115.443707 147.604106,115.609682 147.292977,115.814136 C146.981848,116.01859 146.690523,116.214615 146.418993,116.402219 L145.264995,115.732729 Z M160.182119,119.727618 C160.623356,119.465903 160.965592,119.179947 161.208838,118.86974 C161.452084,118.559533 161.585019,118.245069 161.607647,117.926339 C161.630274,117.607609 161.539765,117.292937 161.336118,116.982314 C161.13247,116.671691 160.798719,116.381829 160.334854,116.112719 C159.87099,115.843609 159.364707,115.646127 158.815989,115.520267 C158.267271,115.394406 157.710077,115.333314 157.144389,115.336989 C156.5787,115.340663 156.024334,115.410634 155.481273,115.546904 C154.938213,115.683174 154.446071,115.882164 154.004835,116.143878 C153.563598,116.405593 153.229847,116.696472 153.003571,117.016525 C152.777296,117.336577 152.66416,117.662527 152.66416,117.994385 C152.66416,118.326242 152.774468,118.6524 152.995086,118.972868 C153.215704,119.293337 153.557941,119.588122 154.021805,119.857232 C154.485669,120.126342 154.983468,120.318901 155.515215,120.434916 C156.046962,120.550931 156.584357,120.600536 157.127418,120.583735 C157.670479,120.566933 158.205046,120.485476 158.731136,120.33936 C159.257226,120.193245 159.740883,119.989332 160.182119,119.727618 Z M161.794323,110.269219 L162.91438,110.919018 L156.703154,114.603135 L156.737095,114.622826 C157.189646,114.56679 157.636533,114.553931 158.07777,114.584251 C158.519006,114.614571 158.937609,114.671585 159.333591,114.755296 C159.729573,114.839007 160.100093,114.947771 160.445163,115.081591 C160.790233,115.215411 161.092872,115.357801 161.353088,115.508765 C161.975345,115.869767 162.439203,116.261658 162.744674,116.684451 C163.050146,117.107244 163.20288,117.53766 163.20288,117.975711 C163.20288,118.413763 163.052974,118.844485 162.75316,119.267891 C162.453345,119.691297 162.003629,120.080826 161.404,120.43649 C160.80437,120.792153 160.145353,121.060256 159.426929,121.240807 C158.708505,121.421357 157.97595,121.514056 157.229241,121.518906 C156.482533,121.523756 155.747149,121.438933 155.023068,121.264433 C154.298987,121.089933 153.625828,120.822186 153.003571,120.461185 C152.743355,120.310221 152.497284,120.134278 152.265352,119.933352 C152.03342,119.732426 151.843917,119.516293 151.696838,119.284949 C151.549759,119.053604 151.447937,118.808695 151.391368,118.550213 C151.334799,118.291732 151.351769,118.029459 151.44228,117.763385 L151.408338,117.743694 L150.084635,118.528834 L148.964577,117.879035 L161.794323,110.269219 Z M171.95969,118.317061 C171.722101,118.457984 171.442089,118.524514 171.119647,118.516652 C170.797205,118.508791 170.534164,118.445788 170.330516,118.327642 C170.126868,118.209497 170.016561,118.055902 169.99959,117.866853 C169.982619,117.677805 170.092927,117.512822 170.330516,117.371898 C170.568105,117.230975 170.848116,117.164445 171.170559,117.172307 C171.493001,117.180168 171.756042,117.243171 171.95969,117.361317 C172.163338,117.479462 172.273645,117.633057 172.290616,117.822106 C172.307587,118.011154 172.197279,118.176137 171.95969,118.317061 Z M160.708207,124.692078 L159.58815,124.042279 L167.530373,119.331441 L168.65043,119.98124 L160.708207,124.692078 Z M171.874837,126.531036 C171.591993,126.366945 171.224301,126.170222 170.771751,125.940861 C170.3192,125.711501 169.844029,125.515476 169.346223,125.35278 C168.848418,125.190085 168.347791,125.09544 167.844328,125.068843 C167.340866,125.042246 166.89115,125.146382 166.495169,125.381254 C166.234952,125.535599 166.065248,125.699309 165.986052,125.872389 C165.906855,126.045469 165.89837,126.219746 165.960596,126.395227 C166.022822,126.570707 166.138786,126.737539 166.308493,126.895728 C166.478199,127.053917 166.676187,127.198646 166.902462,127.329919 C167.309758,127.566211 167.731189,127.731059 168.166769,127.824469 C168.602349,127.917878 169.037923,127.954871 169.473502,127.935449 C169.909082,127.916027 170.330514,127.841941 170.737809,127.71319 C171.145105,127.584439 171.52411,127.416051 171.874837,127.208022 L172.451836,126.865781 L171.874837,126.531036 Z M173.368247,126.322223 L173.571893,126.201432 C174.940859,125.389446 174.946516,124.589645 173.588864,123.802006 C172.661135,123.263786 171.541089,122.979031 170.228693,122.947733 L170.347486,122.080818 C171.863531,122.057697 173.368239,122.479331 174.861656,123.345734 C175.246324,123.568899 175.560276,123.817408 175.803522,124.09127 C176.046768,124.365131 176.182531,124.646324 176.210816,124.934856 C176.2391,125.223388 176.157077,125.51761 175.964743,125.81753 C175.772409,126.117451 175.433001,126.411686 174.946509,126.700243 L171.399661,128.804015 C171.09419,128.985202 170.788723,129.182978 170.483251,129.397351 C170.177779,129.611724 169.934537,129.792504 169.753517,129.939697 L168.667401,129.309589 C168.825793,129.175817 169.009639,129.036904 169.218944,128.892846 C169.428249,128.748788 169.640379,128.61301 169.85534,128.485508 L169.821399,128.465817 C168.961553,128.590871 168.192228,128.592549 167.513402,128.470853 C166.834577,128.349156 166.172731,128.101247 165.527847,127.727119 C165.17712,127.523645 164.885795,127.298219 164.653863,127.050832 C164.42193,126.803446 164.277682,126.547197 164.221113,126.282079 C164.164544,126.016961 164.204142,125.75454 164.339907,125.49481 C164.475672,125.235079 164.735885,124.991137 165.120553,124.762976 C165.765438,124.38047 166.438597,124.176986 167.14005,124.152519 C167.841504,124.128051 168.534461,124.208173 169.218944,124.392885 C169.903427,124.577598 170.553959,124.822262 171.170559,125.126884 C171.787159,125.431506 172.33304,125.72165 172.808218,125.997323 L173.368247,126.322223 Z M175.082273,132.075421 C174.844684,132.216344 174.547703,132.29294 174.191319,132.30521 C173.834935,132.317481 173.520983,132.244853 173.249453,132.087325 C172.977922,131.929797 172.850644,131.746446 172.867615,131.537266 C172.884586,131.328086 173.011864,131.153037 173.249453,131.012113 C173.487042,130.87119 173.784024,130.794594 174.140407,130.782324 C174.496791,130.770053 174.810743,130.842681 175.082273,131.000209 C175.353804,131.157737 175.481082,131.341088 175.464111,131.550268 C175.44714,131.759448 175.319863,131.934497 175.082273,132.075421 Z M188.794488,133.858022 C188.896312,133.571963 188.876513,133.268447 188.735091,132.947464 C188.593669,132.626481 188.302344,132.338003 187.861107,132.08202 C187.408557,131.8062 186.919244,131.608607 186.393154,131.489237 C185.867063,131.369867 185.332496,131.318583 184.789435,131.335385 C184.246375,131.352187 183.711807,131.436963 183.185717,131.589715 C182.659627,131.742468 182.170314,131.953054 181.717764,132.221479 C181.265213,132.489904 180.911663,132.779253 180.657103,133.089534 C180.402544,133.399814 180.263952,133.714315 180.241325,134.033045 C180.218697,134.351775 180.312034,134.664769 180.521339,134.972036 C180.730643,135.279304 181.07288,135.564133 181.548058,135.826533 C181.989295,136.082515 182.484265,136.250204 183.032982,136.329605 C183.5817,136.409005 184.099297,136.417258 184.585789,136.354364 L184.806406,137.298719 C183.94656,137.344127 183.157437,137.28786 182.439012,137.129916 C181.720588,136.971972 181.084199,136.738831 180.529824,136.430486 C179.873626,136.063068 179.38997,135.666328 179.078841,135.240253 C178.767712,134.814178 178.614979,134.383762 178.620636,133.948993 C178.626293,133.514223 178.79034,133.088387 179.112782,132.671471 C179.435224,132.254555 179.896253,131.868271 180.495883,131.512608 C181.095513,131.156944 181.748873,130.882241 182.455983,130.68849 C183.163093,130.494738 183.887163,130.393798 184.628215,130.385666 C185.369267,130.377534 186.10465,130.462358 186.834388,130.640139 C187.564126,130.817921 188.24577,131.097227 188.879341,131.478067 C189.411088,131.799833 189.815549,132.170539 190.092736,132.590198 C190.369923,133.009856 190.474574,133.47211 190.406692,133.976974 L188.794488,133.858022 Z M195.888183,140.44242 C196.32942,140.180706 196.671657,139.894749 196.914902,139.584542 C197.158148,139.274335 197.291083,138.959871 197.313711,138.641141 C197.336338,138.322411 197.245829,138.00774 197.042182,137.697117 C196.838534,137.386494 196.504783,137.096631 196.040918,136.827521 C195.577054,136.558411 195.079256,136.365852 194.547509,136.249837 C194.015762,136.133822 193.481195,136.085857 192.943791,136.105941 C192.406387,136.126024 191.874648,136.209123 191.348558,136.355238 C190.822468,136.501354 190.338812,136.705266 189.897575,136.966981 C189.456338,137.228695 189.114102,137.514652 188.870856,137.824859 C188.62761,138.135066 188.491847,138.447889 188.463562,138.763337 C188.435278,139.078785 188.522958,139.391816 188.726606,139.702439 C188.930254,140.013062 189.264005,140.302924 189.727869,140.572034 C190.191733,140.841144 190.689532,141.033704 191.221279,141.149718 C191.753026,141.265733 192.290421,141.315339 192.833482,141.298537 C193.376543,141.281736 193.91111,141.200278 194.4372,141.054163 C194.96329,140.908047 195.446947,140.704135 195.888183,140.44242 Z M197.110064,141.151292 C196.510434,141.506955 195.851417,141.775058 195.132993,141.955609 C194.414569,142.13616 193.682014,142.228859 192.935305,142.233709 C192.188597,142.238559 191.453213,142.153735 190.729132,141.979235 C190.005051,141.804735 189.331892,141.536989 188.709635,141.175988 C188.098692,140.82155 187.640491,140.432941 187.33502,140.010148 C187.029548,139.587354 186.876815,139.156939 186.876815,138.718887 C186.876815,138.280836 187.02672,137.850113 187.326534,137.426707 C187.626349,137.003301 188.076065,136.613772 188.675694,136.258109 C189.275324,135.902446 189.934341,135.634343 190.652765,135.453792 C191.371189,135.273241 192.103744,135.180542 192.850453,135.175692 C193.597161,135.170842 194.332545,135.255666 195.056626,135.430166 C195.780707,135.604666 196.448209,135.86913 197.059152,136.223568 C197.681409,136.584569 198.145267,136.97646 198.450738,137.399253 C198.75621,137.822047 198.908944,138.252462 198.908944,138.690514 C198.908944,139.128565 198.759038,139.559288 198.459224,139.982694 C198.159409,140.4061 197.709693,140.795629 197.110064,141.151292 Z M201.352705,141.024178 C201.646862,140.849702 201.932531,140.670306 202.209718,140.485984 C202.486905,140.301662 202.76126,140.115702 203.03279,139.928098 L204.2377,140.627124 L203.03279,141.341803 L203.066731,141.361494 C203.802126,141.243886 204.529025,141.254098 205.247449,141.39213 C205.965873,141.530162 206.562665,141.737012 207.037843,142.012686 C207.252805,142.137395 207.459278,142.283728 207.657269,142.451689 C207.85526,142.619651 208.007993,142.804496 208.115474,143.006231 C208.222955,143.207965 208.268209,143.430012 208.251238,143.672378 C208.234268,143.914744 208.12396,144.175965 207.920312,144.456048 C208.655707,144.285342 209.416546,144.255512 210.202853,144.366555 C210.98916,144.477597 211.648177,144.687361 212.179924,144.995853 C213.198162,145.586583 213.681819,146.182434 213.630907,146.783427 C213.579995,147.384419 213.056741,147.980174 212.06113,148.570709 L207.020873,151.56028 L205.900815,150.910481 L210.533779,148.162492 C211.337056,147.686037 211.812227,147.238269 211.959306,146.819173 C212.106385,146.400078 211.795261,145.967372 211.025925,145.521044 C210.607316,145.278188 210.174571,145.123369 209.727677,145.056582 C209.280784,144.989795 208.833897,144.98606 208.387003,145.045379 C207.940109,145.104697 207.504536,145.213719 207.08027,145.372447 C206.656003,145.531176 206.257199,145.721263 205.883845,145.942714 L201.658175,148.449121 L200.538118,147.799322 L205.171081,145.051333 C205.974359,144.574878 206.44953,144.12711 206.596608,143.708015 C206.743687,143.288919 206.432564,142.856214 205.663228,142.409885 C205.595345,142.370503 205.417156,142.293675 205.128655,142.179399 C204.840154,142.065123 204.463977,141.9929 204.000112,141.962727 C203.536248,141.932554 202.996024,141.977544 202.379424,142.097699 C201.762823,142.217854 201.092493,142.492668 200.368412,142.922148 L196.295477,145.337963 L195.17542,144.688164 L201.352705,141.024178 Z" id="path-15"></path>
        <filter x="-5.7%" y="1.8%" width="111.3%" height="108.7%" filterUnits="objectBoundingBox" id="filter-16">
            <feOffset dx="0" dy="1" in="SourceAlpha" result="shadowOffsetOuter1"></feOffset>
            <feGaussianBlur stdDeviation="2" in="shadowOffsetOuter1" result="shadowBlurOuter1"></feGaussianBlur>
            <feColorMatrix values="0 0 0 0 0.265420626   0 0 0 0 0   0 0 0 0 0.330383716  0 0 0 1 0" type="matrix" in="shadowBlurOuter1"></feColorMatrix>
        </filter>
        <linearGradient x1="88.5544263%" y1="91.3309471%" x2="9.32568331%" y2="8.69678579%" id="linearGradient-17">
            <stop stop-color="#FFFFFF" offset="0%"></stop>
            <stop stop-color="#0E0011" offset="100%"></stop>
        </linearGradient>
        <linearGradient x1="39.4533737%" y1="109.198155%" x2="62.2682099%" y2="19.09638%" id="linearGradient-18">
            <stop stop-color="#0173B5" offset="0%"></stop>
            <stop stop-color="#000000" offset="100%"></stop>
        </linearGradient>
        <linearGradient x1="100%" y1="84.6159179%" x2="0%" y2="43.058618%" id="linearGradient-19">
            <stop stop-color="#005C92" stop-opacity="0" offset="0%"></stop>
            <stop stop-color="#006BAA" offset="100%"></stop>
        </linearGradient>
        <linearGradient x1="100%" y1="96.1241583%" x2="5.69375553%" y2="96.1243356%" id="linearGradient-20">
            <stop stop-color="#01588B" stop-opacity="0" offset="0%"></stop>
            <stop stop-color="#007EC6" offset="49.2980891%"></stop>
            <stop stop-color="#01639C" stop-opacity="0" offset="100%"></stop>
        </linearGradient>
        <linearGradient x1="39.4533737%" y1="109.198155%" x2="83.3420137%" y2="4.24106889%" id="linearGradient-21">
            <stop stop-color="#00A0FE" offset="0%"></stop>
            <stop stop-color="#000000" offset="100%"></stop>
        </linearGradient>
        <linearGradient x1="39.4533737%" y1="109.198155%" x2="56.4553193%" y2="7.36353823%" id="linearGradient-22">
            <stop stop-color="#FF5D42" offset="0%"></stop>
            <stop stop-color="#FFA85F" offset="100%"></stop>
        </linearGradient>
        <linearGradient x1="83.1859969%" y1="80.7449255%" x2="0%" y2="36.0329301%" id="linearGradient-23">
            <stop stop-color="#FF734B" stop-opacity="0" offset="0%"></stop>
            <stop stop-color="#FFB679" offset="100%"></stop>
        </linearGradient>
        <linearGradient x1="94.6224081%" y1="93.6768545%" x2="6.79220559%" y2="93.6768545%" id="linearGradient-24">
            <stop stop-color="#FF6A47" offset="0%"></stop>
            <stop stop-color="#FF9F84" offset="50.0221937%"></stop>
            <stop stop-color="#FF6746" offset="100%"></stop>
        </linearGradient>
        <linearGradient x1="0%" y1="86.580352%" x2="83.3718024%" y2="50%" id="linearGradient-25">
            <stop stop-color="#FF9658" stop-opacity="0" offset="0%"></stop>
            <stop stop-color="#CC6460" offset="100%"></stop>
        </linearGradient>
        <linearGradient x1="39.4533737%" y1="109.198155%" x2="56.4553193%" y2="7.36353823%" id="linearGradient-26">
            <stop stop-color="#FD2400" offset="0%"></stop>
            <stop stop-color="#FF7400" offset="100%"></stop>
        </linearGradient>
        <path d="M336.114236,71.6050835 L380.493415,96.1557676 C382.813091,97.4390183 383.653279,100.359767 382.370028,102.679442 C381.918099,103.496374 381.237741,104.163781 380.412276,104.599928 L326.224964,133.230622 C323.351778,134.748714 319.905648,134.71025 317.067062,133.128406 L272.940416,108.53819 C270.624736,107.247743 269.79362,104.3244 271.084067,102.00872 C271.535142,101.199275 272.210872,100.537699 273.029682,100.103857 L326.972588,71.5225235 C329.838151,70.0042213 333.276562,70.0352743 336.114236,71.6050835 Z" id="path-27"></path>
        <filter x="-30.7%" y="-52.4%" width="156.0%" height="198.5%" filterUnits="objectBoundingBox" id="filter-28">
            <feOffset dx="-3" dy="-2" in="SourceAlpha" result="shadowOffsetOuter1"></feOffset>
            <feGaussianBlur stdDeviation="10" in="shadowOffsetOuter1" result="shadowBlurOuter1"></feGaussianBlur>
            <feColorMatrix values="0 0 0 0 0.369451814   0 0 0 0 0.229315306   0 0 0 0 0.879039116  0 0 0 1 0" type="matrix" in="shadowBlurOuter1"></feColorMatrix>
        </filter>
        <linearGradient x1="58.2781213%" y1="112.498381%" x2="4.91963142%" y2="-20.7019032%" id="linearGradient-29">
            <stop stop-color="#FEED00" offset="0%"></stop>
            <stop stop-color="#FE4600" offset="100%"></stop>
        </linearGradient>
    </defs>
    <g id="Page-1" stroke="none" stroke-width="1" fill="none" fill-rule="evenodd">
        <g id="Desktop-HD-Copy-3" transform="translate(-217.000000, -1665.000000)">
            <g id="Group-38" transform="translate(150.000000, 1161.000000)">
                <g id="Group-27" transform="translate(67.000000, 506.000000)">
                    <g id="Group-17">
                        <g id="Group-16" transform="translate(43.000000, 0.000000)">
                            <path d="M233.1153,23.7357485 L423.530098,136.989193 C430.821052,141.32565 433.216145,150.75153 428.879688,158.042484 C427.492926,160.374069 425.513392,162.296785 423.142421,163.615077 L227.98615,272.124633 C218.424313,277.441146 206.756522,277.271156 197.353624,271.678344 L7.55755443,158.788276 C2.90237798,156.019393 0.0496431102,151.003376 0.0496431102,145.586977 L0.0496431102,126.26045 L203.48123,22.7586513 C212.873061,17.9802809 224.058631,18.3490925 233.1153,23.7357485 Z" id="Rectangle" fill="url(#linearGradient-1)" transform="translate(215.549880, 147.707154) scale(-1, 1) translate(-215.549880, -147.707154) "></path>
                            <path d="M431.050117,156.523015 L431.050117,169.379043 L413.244424,158.788276 C408.589248,156.019393 405.736513,151.003376 405.736513,145.586977 L405.736513,126.26045 L406.864878,126.506098 C420.98225,129.579487 431.050117,142.074974 431.050117,156.523015 Z" id="Rectangle-Copy-8" fill="url(#linearGradient-2)" transform="translate(418.393315, 147.819746) scale(-1, 1) translate(-418.393315, -147.819746) "></path>
                            <path d="M249.82304,203.094881 L249.82304,262.887715 L233.210286,272.124633 C223.648448,277.441146 211.980657,277.271156 202.577759,271.678344 L186.500856,262.115855 L186.500856,208.402202 C186.500856,200.871706 191.960228,194.451734 199.392883,193.24177 L231.995068,187.934448 C240.367943,186.571425 248.260449,192.254033 249.623473,200.626908 C249.756301,201.442855 249.82304,202.268193 249.82304,203.094881 Z" id="Rectangle" fill="url(#linearGradient-3)" transform="translate(218.161948, 231.863623) scale(-1, 1) translate(-218.161948, -231.863623) "></path>
                            <path d="M233.745983,4.92496825 L423.520881,117.797818 C430.811835,122.134275 433.206928,131.560155 428.87047,138.85111 C427.483708,141.182694 425.504175,143.10541 423.133204,144.423703 L227.976612,252.933437 C218.414947,258.249854 206.74739,258.079973 197.34456,252.487431 L7.56966244,139.614581 C0.278708083,135.278124 -2.11638478,125.852244 2.22007279,118.561289 C3.6068348,116.229705 5.5863682,114.306988 7.95733893,112.988696 L203.113932,4.47896143 C212.675597,-0.837455099 224.343154,-0.667573886 233.745983,4.92496825 Z" id="Rectangle" fill="url(#linearGradient-4)" transform="translate(215.545272, 128.706199) scale(-1, 1) translate(-215.545272, -128.706199) "></path>
                            <path d="M233.257135,5.75077925 C224.147374,0.332546318 212.842112,0.167967382 203.578388,5.31872415 L8.41160063,113.834128 C6.19047625,115.069103 4.33593422,116.869808 3.03639489,119.053291 C-1.02955821,125.884896 1.21428799,134.718016 8.04816564,138.782617 L197.833409,251.66162 C206.943169,257.079853 218.248432,257.244432 227.512155,252.093675 L422.678943,143.578271 C424.900067,142.343296 426.754609,140.542591 428.054148,138.359108 C432.120101,131.527503 429.876255,122.694383 423.042378,118.629782 L233.257135,5.75077925 Z M233.747939,4.92613156 L423.533182,117.805134 C430.822651,122.140708 433.216087,131.562703 428.87907,138.849749 C427.492895,141.178798 425.514717,143.099549 423.145518,144.416856 L227.97873,252.93226 C218.416177,258.24917 206.746228,258.079282 197.342605,252.486267 L7.55736169,139.607265 C0.267892188,135.271691 -2.12554375,125.849695 2.21147289,118.56265 C3.59764817,116.233601 5.57582633,114.31285 7.94502567,112.995543 L203.111813,4.4801392 C212.674366,-0.836771013 224.344315,-0.66688308 233.747939,4.92613156 Z" id="Rectangle" fill="url(#linearGradient-5)" fill-rule="nonzero" filter="url(#filter-6)" transform="translate(215.545272, 128.706199) scale(-1, 1) translate(-215.545272, -128.706199) "></path>
                        </g>
                        <g id="Rectangle" opacity="0.400000006" transform="translate(206.478061, 107.405837) scale(-1, 1) translate(-206.478061, -107.405837) ">
                            <use fill="black" fill-opacity="1" filter="url(#filter-8)" xlink:href="#path-7"></use>
                            <use fill="url(#linearGradient-4)" fill-rule="evenodd" xlink:href="#path-7"></use>
                        </g>
                        <path d="M234.32179,32.3041511 L295.689712,68.7029251 C301.389894,72.0838388 303.270033,79.4455217 299.889119,85.145704 C298.805402,86.9728397 297.256069,88.479539 295.399413,89.5118651 L91.7680272,202.733701 C84.3071039,206.882076 75.2041796,206.755084 67.8618829,202.400193 L6.49396113,166.001419 C0.793778801,162.620505 -1.08635989,155.258822 2.29455382,149.55864 C3.37827145,147.731504 4.92760458,146.224805 6.78426058,145.192479 L210.415646,31.9706435 C217.876569,27.8222681 226.979494,27.9492603 234.32179,32.3041511 Z" id="Rectangle" fill="url(#linearGradient-9)" transform="translate(151.091837, 117.352172) scale(-1, 1) translate(-151.091837, -117.352172) "></path>
                        <path d="M234.32179,28.3041511 L295.689712,64.7029251 C301.389894,68.0838388 303.270033,75.4455217 299.889119,81.145704 C298.805402,82.9728397 297.256069,84.479539 295.399413,85.5118651 L91.7680272,198.733701 C84.3071039,202.882076 75.2041796,202.755084 67.8618829,198.400193 L6.49396113,162.001419 C0.793778801,158.620505 -1.08635989,151.258822 2.29455382,145.55864 C3.37827145,143.731504 4.92760458,142.224805 6.78426058,141.192479 L210.415646,27.9706435 C217.876569,23.8222681 226.979494,23.9492603 234.32179,28.3041511 Z" id="Rectangle" fill="url(#linearGradient-10)" transform="translate(151.091837, 113.352172) scale(-1, 1) translate(-151.091837, -113.352172) "></path>
                        <circle id="Oval" fill="#F3C1FF" opacity="0.5" filter="url(#filter-11)" cx="291.5" cy="150.5" r="7.5"></circle>
                        <circle id="Oval" fill="#FDF4FF" opacity="0.5" filter="url(#filter-12)" cx="295.5" cy="150.5" r="3.5"></circle>
                        <path d="M223.203237,49.5972399 L252.810072,67.1191117 C255.547726,68.739306 256.453607,72.2720401 254.833412,75.0096943 C254.312468,75.8899387 253.566522,76.6155869 252.672246,77.1120569 L98.4313245,162.740993 C84.6077654,170.415329 67.7511433,170.182836 54.1444972,162.130172 L54.1444972,162.130172 C47.1882262,158.013322 44.8864204,149.036784 49.00327,142.080513 C50.3269702,139.843847 52.2223871,138.000004 54.4947093,136.738493 L211.744405,49.4391951 C215.321131,47.4535274 219.682635,47.513683 223.203237,49.5972399 Z" id="Rectangle" fill="url(#linearGradient-13)" transform="translate(146.815966, 110.682351) scale(-1, 1) translate(-146.815966, -110.682351) "></path>
                        <g id="https:/zubia.com">
                            <use fill="black" fill-opacity="1" filter="url(#filter-16)" xlink:href="#path-15"></use>
                            <use fill="url(#linearGradient-14)" fill-rule="evenodd" xlink:href="#path-15"></use>
                        </g>
                        <path d="M95.8297454,72 L96.9498026,72.6497989 L90.7894883,76.3037185 L90.8234294,76.3234093 C91.1628424,76.2681076 91.5192206,76.2425632 91.8925749,76.2467753 C92.2659291,76.2509874 92.6364494,76.2834253 93.0041467,76.3440899 C93.3718441,76.4047545 93.725394,76.4903989 94.0648069,76.6010258 C94.4042199,76.7116527 94.7040301,76.8424462 94.9642467,76.9934104 C95.9824856,77.5841396 96.4661418,78.1799914 96.4152299,78.7809837 C96.3643179,79.3819759 95.8410641,79.9777307 94.8454528,80.5682661 L89.8051957,83.5578367 L88.6851385,82.9080377 L93.0805143,80.3009712 C93.9629879,79.7775421 94.4862417,79.2879799 94.6502913,78.83227 C94.8143409,78.3765601 94.4834183,77.9091386 93.6575134,77.4299916 C93.6009446,77.3971733 93.4199271,77.3187045 93.1144554,77.1945829 C92.8089837,77.0704612 92.4101795,76.9851107 91.9180307,76.9385288 C91.4258819,76.8919468 90.8630306,76.9238101 90.2294597,77.0341196 C89.5958889,77.1444291 88.9170732,77.4143199 88.1929922,77.8438002 L84.1200571,80.2596148 L83,79.6098159 L95.8297454,72 Z M103.466499,83.359591 L101.175473,82.0304568 L96.4915974,84.8086435 C96.1974395,84.9831199 95.9853096,85.1421275 95.8552013,85.2856712 C95.725093,85.4292149 95.6600398,85.560719 95.6600398,85.6801876 C95.6600398,85.7996562 95.710951,85.9121553 95.8127749,86.0176882 C95.9145988,86.1232212 96.0503619,86.2252135 96.2200684,86.3236684 C96.4124024,86.4352506 96.6386743,86.5333366 96.8988909,86.6179293 C97.1591075,86.702522 97.4193202,86.7672023 97.6795368,86.8119721 L96.6952441,87.455528 C96.0843008,87.3267533 95.4846803,87.0917144 94.8963645,86.7504042 C94.681403,86.6256947 94.4862434,86.479288 94.3108801,86.3111799 C94.1355167,86.1430717 94.030866,85.956255 93.9969247,85.750724 C93.9629834,85.5451929 94.0195513,85.3258031 94.1666303,85.0925477 C94.3137092,84.8592924 94.6078627,84.6118111 95.0490996,84.3500966 L100.055416,81.3806578 L98.3753299,80.4059594 L99.3935636,79.8020058 L101.073649,80.7767042 L103.313764,79.4480062 L104.433821,80.0978051 L102.193706,81.4265031 L104.484732,82.7556373 L103.466499,83.359591 Z M109.100726,86.6282765 L106.8097,85.2991423 L102.125824,88.0773291 C101.831666,88.2518054 101.619536,88.4108131 101.489428,88.5543567 C101.35932,88.6979004 101.294267,88.8294046 101.294267,88.9488732 C101.294267,89.0683418 101.345178,89.1808408 101.447002,89.2863738 C101.548826,89.3919067 101.684589,89.4938991 101.854295,89.592354 C102.046629,89.7039362 102.272901,89.8020221 102.533118,89.8866148 C102.793334,89.9712075 103.053547,90.0358878 103.313764,90.0806577 L102.329471,90.7242135 C101.718528,90.5954389 101.118907,90.3604 100.530591,90.0190897 C100.31563,89.8943802 100.12047,89.7479736 99.9451069,89.5798654 C99.7697435,89.4117573 99.6650928,89.2249405 99.6311515,89.0194095 C99.5972102,88.8138785 99.6537782,88.5944886 99.8008571,88.3612333 C99.9479361,88.1279779 100.24209,87.8804967 100.683326,87.6187821 L105.689642,84.6493434 L104.009557,83.674645 L105.02779,83.0706913 L106.707876,84.0453897 L108.94799,82.7166917 L110.068048,83.3664907 L107.827933,84.6951887 L110.118959,86.0243229 L109.100726,86.6282765 Z M114.921629,93.4698337 C115.362865,93.2081192 115.705102,92.9221626 115.948348,92.6119555 C116.191594,92.3017483 116.324528,91.9872845 116.347156,91.6685547 C116.369783,91.3498248 116.279275,91.035153 116.075627,90.72453 C115.871979,90.413907 115.538228,90.1240448 115.074364,89.8549348 C114.610499,89.5858248 114.104216,89.3883427 113.555498,89.2624824 C113.006781,89.1366222 112.449586,89.0755301 111.883898,89.0792044 C111.31821,89.0828786 110.763843,89.1528498 110.220783,89.28912 C109.677722,89.4253902 109.185581,89.6243796 108.744344,89.8860941 C108.303107,90.1478087 107.969356,90.4386879 107.74308,90.7587405 C107.516805,91.0787932 107.403669,91.4047432 107.403669,91.7366004 C107.403669,92.0684576 107.513977,92.3946155 107.734595,92.7150841 C107.955214,93.0355526 108.29745,93.3303374 108.761314,93.5994474 C109.225179,93.8685574 109.722977,94.0611169 110.254724,94.1771317 C110.786471,94.2931464 111.323867,94.3427523 111.866927,94.3259507 C112.409988,94.3091491 112.944555,94.2276917 113.470645,94.081576 C113.996735,93.9354603 114.480392,93.7315483 114.921629,93.4698337 Z M111.64631,86.9104123 L112.766367,87.5602113 L111.442663,88.345351 L111.476604,88.3650419 C111.929155,88.3090053 112.376042,88.2961471 112.817279,88.3264669 C113.258516,88.3567867 113.677119,88.4138011 114.0731,88.497512 C114.469082,88.5812229 114.839602,88.6899868 115.184672,88.8238069 C115.529742,88.957627 115.832381,89.1000171 116.092597,89.2509812 C116.714854,89.6119824 117.178712,90.0038737 117.484184,90.4266668 C117.789655,90.8494599 117.942389,91.2798757 117.942389,91.7179272 C117.942389,92.1559788 117.792484,92.586701 117.492669,93.0101071 C117.192854,93.4335131 116.743139,93.8230419 116.143509,94.1787053 C115.543879,94.5343686 114.884863,94.8024716 114.166438,94.9830223 C113.448014,95.1635729 112.715459,95.2562719 111.968751,95.2611219 C111.222042,95.265972 110.486658,95.1811484 109.762577,95.0066486 C109.038496,94.8321487 108.365338,94.5644023 107.74308,94.203401 C107.482864,94.0524369 107.236793,93.8764942 107.004861,93.6755678 C106.772929,93.4746414 106.583426,93.258509 106.436347,93.0271643 C106.289268,92.7958196 106.187446,92.5509103 106.130877,92.2924291 C106.074308,92.0339479 106.091279,91.7716744 106.181789,91.5056008 L106.147848,91.4859099 L99.9366216,95.1700271 L98.8165645,94.5202282 L111.64631,86.9104123 Z M124.340291,96.4849581 C124.498684,96.191895 124.532624,95.9062816 124.442114,95.6281095 C124.351604,95.3499373 124.102705,95.0927092 123.695409,94.8564175 C123.503075,94.7448354 123.285289,94.645035 123.042043,94.5570135 C122.798797,94.468992 122.549898,94.4075567 122.295338,94.3727059 C122.040778,94.337855 121.791879,94.3361531 121.548633,94.3676002 C121.305387,94.3990473 121.076287,94.4785206 120.861325,94.6060226 C120.487971,94.8274734 120.346551,95.064007 120.437061,95.3156306 C120.527572,95.5672542 120.770814,95.8809339 121.166796,96.2566791 L122.032294,97.0773778 C122.462217,97.472814 122.671519,97.8895883 122.660205,98.3277133 C122.648891,98.7658383 122.360395,99.1526607 121.794706,99.4881922 C121.364783,99.7431961 120.906583,99.9120983 120.420091,99.9949039 C119.933599,100.07771 119.447114,100.094143 118.960622,100.044206 C118.474131,99.9942689 117.99896,99.887844 117.535095,99.7249283 C117.071231,99.5620126 116.646971,99.3689755 116.262303,99.1458111 C115.65136,98.7913736 115.198816,98.3927718 114.904658,97.9499937 C114.6105,97.5072157 114.559589,97.0097681 114.751923,96.4576359 L116.381097,96.626256 C116.245332,96.9722693 116.242503,97.3091177 116.372612,97.6368112 C116.50272,97.9645048 116.805359,98.2661838 117.280537,98.5418575 C117.506812,98.6731306 117.75854,98.7893032 118.035727,98.8903785 C118.312914,98.9914538 118.592926,99.0609833 118.87577,99.098969 C119.158614,99.1369548 119.438625,99.1367953 119.715813,99.0984906 C119.993,99.0601859 120.244727,98.9739286 120.471003,98.839716 C120.866984,98.6048439 121.005576,98.3500768 120.886781,98.0754069 C120.767987,97.800737 120.5502,97.5117809 120.233415,97.2085299 L119.401857,96.4274334 C119.300033,96.3285376 119.172755,96.1883272 119.020019,96.0067977 C118.867284,95.8252683 118.759804,95.6235366 118.697579,95.4015964 C118.635353,95.1796563 118.652323,94.9472495 118.74849,94.7043691 C118.844657,94.4614887 119.079415,94.2293266 119.452769,94.0078759 C119.860064,93.7662932 120.298466,93.6024974 120.767987,93.5164834 C121.237509,93.4304695 121.707023,93.4108272 122.176544,93.4575562 C122.646065,93.5042851 123.104266,93.6008646 123.55116,93.7472977 C123.998053,93.8937308 124.408171,94.0752449 124.781525,94.2918457 C125.3359,94.6134649 125.743189,94.9758569 126.003406,95.3790325 C126.263623,95.7822082 126.263623,96.213616 126.003406,96.6732691 L124.340291,96.4849581 Z M124.170585,102.539105 C123.932996,102.680029 123.636014,102.756624 123.279631,102.768895 C122.923247,102.781165 122.609295,102.708538 122.337764,102.55101 C122.066234,102.393482 121.938956,102.210131 121.955927,102.000951 C121.972897,101.79177 122.100175,101.616721 122.337764,101.475798 C122.575354,101.334875 122.872335,101.258279 123.228719,101.246009 C123.585103,101.233738 123.899055,101.306366 124.170585,101.463894 C124.442116,101.621421 124.569394,101.804773 124.552423,102.013953 C124.535452,102.223133 124.408174,102.398182 124.170585,102.539105 Z M130.466664,98.8046588 C130.229075,98.945582 129.932093,99.0221777 129.575709,99.0344482 C129.219326,99.0467188 128.905374,98.9740912 128.633843,98.8165634 C128.362313,98.6590356 128.235035,98.4756843 128.252006,98.2665041 C128.268976,98.0573238 128.396254,97.8822747 128.633843,97.7413515 C128.871432,97.6004282 129.168414,97.5238325 129.524798,97.511562 C129.881181,97.4992915 130.195134,97.571919 130.466664,97.7294468 C130.738194,97.8869747 130.865472,98.0703259 130.848502,98.2795062 C130.831531,98.4886865 130.704253,98.6637356 130.466664,98.8046588 Z M125.562171,104.660579 L124.900319,103.898292 L142.346058,99.5836866 L142.973969,100.346195 L125.562171,104.660579 Z M144.874672,107.143525 L134.115335,108.069596 L138.934975,110.865701 L137.916741,111.469655 L131.467927,107.728388 L132.282514,107.245225 L143.041851,106.319153 L138.629505,103.759339 L139.647738,103.155386 L145.689259,106.660362 L144.874672,107.143525 Z M145.264995,115.732729 C145.457329,115.5921 145.655317,115.458073 145.858964,115.330645 C146.062612,115.203216 146.271914,115.075753 146.486875,114.948251 L146.452934,114.92856 C146.113521,114.983862 145.757143,115.009406 145.383789,115.005194 C145.010434,115.000982 144.639914,114.968544 144.272217,114.90788 C143.904519,114.847215 143.55097,114.761571 143.211557,114.650944 C142.872144,114.540317 142.572333,114.409523 142.312117,114.258559 C141.293878,113.66783 140.810222,113.071978 140.861134,112.470986 C140.912046,111.869994 141.435299,111.274239 142.430911,110.683703 L147.471168,107.694133 L148.591225,108.343932 L144.195849,110.950998 C143.754612,111.212713 143.398234,111.463917 143.126704,111.704618 C142.855173,111.945318 142.68547,112.182036 142.617587,112.414777 C142.549704,112.647518 142.594959,112.87952 142.753351,113.110792 C142.911744,113.342063 143.200241,113.579123 143.61885,113.821978 C143.675419,113.854796 143.856436,113.933265 144.161908,114.057387 C144.46738,114.181508 144.866184,114.266859 145.358333,114.313441 C145.850482,114.360023 146.413333,114.328159 147.046904,114.21785 C147.680475,114.10754 148.35929,113.83765 149.083371,113.408169 L153.156306,110.992355 L154.276364,111.642154 L148.082108,115.316205 C147.867147,115.443707 147.604106,115.609682 147.292977,115.814136 C146.981848,116.01859 146.690523,116.214615 146.418993,116.402219 L145.264995,115.732729 Z M160.182119,119.727618 C160.623356,119.465903 160.965592,119.179947 161.208838,118.86974 C161.452084,118.559533 161.585019,118.245069 161.607647,117.926339 C161.630274,117.607609 161.539765,117.292937 161.336118,116.982314 C161.13247,116.671691 160.798719,116.381829 160.334854,116.112719 C159.87099,115.843609 159.364707,115.646127 158.815989,115.520267 C158.267271,115.394406 157.710077,115.333314 157.144389,115.336989 C156.5787,115.340663 156.024334,115.410634 155.481273,115.546904 C154.938213,115.683174 154.446071,115.882164 154.004835,116.143878 C153.563598,116.405593 153.229847,116.696472 153.003571,117.016525 C152.777296,117.336577 152.66416,117.662527 152.66416,117.994385 C152.66416,118.326242 152.774468,118.6524 152.995086,118.972868 C153.215704,119.293337 153.557941,119.588122 154.021805,119.857232 C154.485669,120.126342 154.983468,120.318901 155.515215,120.434916 C156.046962,120.550931 156.584357,120.600536 157.127418,120.583735 C157.670479,120.566933 158.205046,120.485476 158.731136,120.33936 C159.257226,120.193245 159.740883,119.989332 160.182119,119.727618 Z M161.794323,110.269219 L162.91438,110.919018 L156.703154,114.603135 L156.737095,114.622826 C157.189646,114.56679 157.636533,114.553931 158.07777,114.584251 C158.519006,114.614571 158.937609,114.671585 159.333591,114.755296 C159.729573,114.839007 160.100093,114.947771 160.445163,115.081591 C160.790233,115.215411 161.092872,115.357801 161.353088,115.508765 C161.975345,115.869767 162.439203,116.261658 162.744674,116.684451 C163.050146,117.107244 163.20288,117.53766 163.20288,117.975711 C163.20288,118.413763 163.052974,118.844485 162.75316,119.267891 C162.453345,119.691297 162.003629,120.080826 161.404,120.43649 C160.80437,120.792153 160.145353,121.060256 159.426929,121.240807 C158.708505,121.421357 157.97595,121.514056 157.229241,121.518906 C156.482533,121.523756 155.747149,121.438933 155.023068,121.264433 C154.298987,121.089933 153.625828,120.822186 153.003571,120.461185 C152.743355,120.310221 152.497284,120.134278 152.265352,119.933352 C152.03342,119.732426 151.843917,119.516293 151.696838,119.284949 C151.549759,119.053604 151.447937,118.808695 151.391368,118.550213 C151.334799,118.291732 151.351769,118.029459 151.44228,117.763385 L151.408338,117.743694 L150.084635,118.528834 L148.964577,117.879035 L161.794323,110.269219 Z M171.95969,118.317061 C171.722101,118.457984 171.442089,118.524514 171.119647,118.516652 C170.797205,118.508791 170.534164,118.445788 170.330516,118.327642 C170.126868,118.209497 170.016561,118.055902 169.99959,117.866853 C169.982619,117.677805 170.092927,117.512822 170.330516,117.371898 C170.568105,117.230975 170.848116,117.164445 171.170559,117.172307 C171.493001,117.180168 171.756042,117.243171 171.95969,117.361317 C172.163338,117.479462 172.273645,117.633057 172.290616,117.822106 C172.307587,118.011154 172.197279,118.176137 171.95969,118.317061 Z M160.708207,124.692078 L159.58815,124.042279 L167.530373,119.331441 L168.65043,119.98124 L160.708207,124.692078 Z M171.874837,126.531036 C171.591993,126.366945 171.224301,126.170222 170.771751,125.940861 C170.3192,125.711501 169.844029,125.515476 169.346223,125.35278 C168.848418,125.190085 168.347791,125.09544 167.844328,125.068843 C167.340866,125.042246 166.89115,125.146382 166.495169,125.381254 C166.234952,125.535599 166.065248,125.699309 165.986052,125.872389 C165.906855,126.045469 165.89837,126.219746 165.960596,126.395227 C166.022822,126.570707 166.138786,126.737539 166.308493,126.895728 C166.478199,127.053917 166.676187,127.198646 166.902462,127.329919 C167.309758,127.566211 167.731189,127.731059 168.166769,127.824469 C168.602349,127.917878 169.037923,127.954871 169.473502,127.935449 C169.909082,127.916027 170.330514,127.841941 170.737809,127.71319 C171.145105,127.584439 171.52411,127.416051 171.874837,127.208022 L172.451836,126.865781 L171.874837,126.531036 Z M173.368247,126.322223 L173.571893,126.201432 C174.940859,125.389446 174.946516,124.589645 173.588864,123.802006 C172.661135,123.263786 171.541089,122.979031 170.228693,122.947733 L170.347486,122.080818 C171.863531,122.057697 173.368239,122.479331 174.861656,123.345734 C175.246324,123.568899 175.560276,123.817408 175.803522,124.09127 C176.046768,124.365131 176.182531,124.646324 176.210816,124.934856 C176.2391,125.223388 176.157077,125.51761 175.964743,125.81753 C175.772409,126.117451 175.433001,126.411686 174.946509,126.700243 L171.399661,128.804015 C171.09419,128.985202 170.788723,129.182978 170.483251,129.397351 C170.177779,129.611724 169.934537,129.792504 169.753517,129.939697 L168.667401,129.309589 C168.825793,129.175817 169.009639,129.036904 169.218944,128.892846 C169.428249,128.748788 169.640379,128.61301 169.85534,128.485508 L169.821399,128.465817 C168.961553,128.590871 168.192228,128.592549 167.513402,128.470853 C166.834577,128.349156 166.172731,128.101247 165.527847,127.727119 C165.17712,127.523645 164.885795,127.298219 164.653863,127.050832 C164.42193,126.803446 164.277682,126.547197 164.221113,126.282079 C164.164544,126.016961 164.204142,125.75454 164.339907,125.49481 C164.475672,125.235079 164.735885,124.991137 165.120553,124.762976 C165.765438,124.38047 166.438597,124.176986 167.14005,124.152519 C167.841504,124.128051 168.534461,124.208173 169.218944,124.392885 C169.903427,124.577598 170.553959,124.822262 171.170559,125.126884 C171.787159,125.431506 172.33304,125.72165 172.808218,125.997323 L173.368247,126.322223 Z M175.082273,132.075421 C174.844684,132.216344 174.547703,132.29294 174.191319,132.30521 C173.834935,132.317481 173.520983,132.244853 173.249453,132.087325 C172.977922,131.929797 172.850644,131.746446 172.867615,131.537266 C172.884586,131.328086 173.011864,131.153037 173.249453,131.012113 C173.487042,130.87119 173.784024,130.794594 174.140407,130.782324 C174.496791,130.770053 174.810743,130.842681 175.082273,131.000209 C175.353804,131.157737 175.481082,131.341088 175.464111,131.550268 C175.44714,131.759448 175.319863,131.934497 175.082273,132.075421 Z M188.794488,133.858022 C188.896312,133.571963 188.876513,133.268447 188.735091,132.947464 C188.593669,132.626481 188.302344,132.338003 187.861107,132.08202 C187.408557,131.8062 186.919244,131.608607 186.393154,131.489237 C185.867063,131.369867 185.332496,131.318583 184.789435,131.335385 C184.246375,131.352187 183.711807,131.436963 183.185717,131.589715 C182.659627,131.742468 182.170314,131.953054 181.717764,132.221479 C181.265213,132.489904 180.911663,132.779253 180.657103,133.089534 C180.402544,133.399814 180.263952,133.714315 180.241325,134.033045 C180.218697,134.351775 180.312034,134.664769 180.521339,134.972036 C180.730643,135.279304 181.07288,135.564133 181.548058,135.826533 C181.989295,136.082515 182.484265,136.250204 183.032982,136.329605 C183.5817,136.409005 184.099297,136.417258 184.585789,136.354364 L184.806406,137.298719 C183.94656,137.344127 183.157437,137.28786 182.439012,137.129916 C181.720588,136.971972 181.084199,136.738831 180.529824,136.430486 C179.873626,136.063068 179.38997,135.666328 179.078841,135.240253 C178.767712,134.814178 178.614979,134.383762 178.620636,133.948993 C178.626293,133.514223 178.79034,133.088387 179.112782,132.671471 C179.435224,132.254555 179.896253,131.868271 180.495883,131.512608 C181.095513,131.156944 181.748873,130.882241 182.455983,130.68849 C183.163093,130.494738 183.887163,130.393798 184.628215,130.385666 C185.369267,130.377534 186.10465,130.462358 186.834388,130.640139 C187.564126,130.817921 188.24577,131.097227 188.879341,131.478067 C189.411088,131.799833 189.815549,132.170539 190.092736,132.590198 C190.369923,133.009856 190.474574,133.47211 190.406692,133.976974 L188.794488,133.858022 Z M195.888183,140.44242 C196.32942,140.180706 196.671657,139.894749 196.914902,139.584542 C197.158148,139.274335 197.291083,138.959871 197.313711,138.641141 C197.336338,138.322411 197.245829,138.00774 197.042182,137.697117 C196.838534,137.386494 196.504783,137.096631 196.040918,136.827521 C195.577054,136.558411 195.079256,136.365852 194.547509,136.249837 C194.015762,136.133822 193.481195,136.085857 192.943791,136.105941 C192.406387,136.126024 191.874648,136.209123 191.348558,136.355238 C190.822468,136.501354 190.338812,136.705266 189.897575,136.966981 C189.456338,137.228695 189.114102,137.514652 188.870856,137.824859 C188.62761,138.135066 188.491847,138.447889 188.463562,138.763337 C188.435278,139.078785 188.522958,139.391816 188.726606,139.702439 C188.930254,140.013062 189.264005,140.302924 189.727869,140.572034 C190.191733,140.841144 190.689532,141.033704 191.221279,141.149718 C191.753026,141.265733 192.290421,141.315339 192.833482,141.298537 C193.376543,141.281736 193.91111,141.200278 194.4372,141.054163 C194.96329,140.908047 195.446947,140.704135 195.888183,140.44242 Z M197.110064,141.151292 C196.510434,141.506955 195.851417,141.775058 195.132993,141.955609 C194.414569,142.13616 193.682014,142.228859 192.935305,142.233709 C192.188597,142.238559 191.453213,142.153735 190.729132,141.979235 C190.005051,141.804735 189.331892,141.536989 188.709635,141.175988 C188.098692,140.82155 187.640491,140.432941 187.33502,140.010148 C187.029548,139.587354 186.876815,139.156939 186.876815,138.718887 C186.876815,138.280836 187.02672,137.850113 187.326534,137.426707 C187.626349,137.003301 188.076065,136.613772 188.675694,136.258109 C189.275324,135.902446 189.934341,135.634343 190.652765,135.453792 C191.371189,135.273241 192.103744,135.180542 192.850453,135.175692 C193.597161,135.170842 194.332545,135.255666 195.056626,135.430166 C195.780707,135.604666 196.448209,135.86913 197.059152,136.223568 C197.681409,136.584569 198.145267,136.97646 198.450738,137.399253 C198.75621,137.822047 198.908944,138.252462 198.908944,138.690514 C198.908944,139.128565 198.759038,139.559288 198.459224,139.982694 C198.159409,140.4061 197.709693,140.795629 197.110064,141.151292 Z M201.352705,141.024178 C201.646862,140.849702 201.932531,140.670306 202.209718,140.485984 C202.486905,140.301662 202.76126,140.115702 203.03279,139.928098 L204.2377,140.627124 L203.03279,141.341803 L203.066731,141.361494 C203.802126,141.243886 204.529025,141.254098 205.247449,141.39213 C205.965873,141.530162 206.562665,141.737012 207.037843,142.012686 C207.252805,142.137395 207.459278,142.283728 207.657269,142.451689 C207.85526,142.619651 208.007993,142.804496 208.115474,143.006231 C208.222955,143.207965 208.268209,143.430012 208.251238,143.672378 C208.234268,143.914744 208.12396,144.175965 207.920312,144.456048 C208.655707,144.285342 209.416546,144.255512 210.202853,144.366555 C210.98916,144.477597 211.648177,144.687361 212.179924,144.995853 C213.198162,145.586583 213.681819,146.182434 213.630907,146.783427 C213.579995,147.384419 213.056741,147.980174 212.06113,148.570709 L207.020873,151.56028 L205.900815,150.910481 L210.533779,148.162492 C211.337056,147.686037 211.812227,147.238269 211.959306,146.819173 C212.106385,146.400078 211.795261,145.967372 211.025925,145.521044 C210.607316,145.278188 210.174571,145.123369 209.727677,145.056582 C209.280784,144.989795 208.833897,144.98606 208.387003,145.045379 C207.940109,145.104697 207.504536,145.213719 207.08027,145.372447 C206.656003,145.531176 206.257199,145.721263 205.883845,145.942714 L201.658175,148.449121 L200.538118,147.799322 L205.171081,145.051333 C205.974359,144.574878 206.44953,144.12711 206.596608,143.708015 C206.743687,143.288919 206.432564,142.856214 205.663228,142.409885 C205.595345,142.370503 205.417156,142.293675 205.128655,142.179399 C204.840154,142.065123 204.463977,141.9929 204.000112,141.962727 C203.536248,141.932554 202.996024,141.977544 202.379424,142.097699 C201.762823,142.217854 201.092493,142.492668 200.368412,142.922148 L196.295477,145.337963 L195.17542,144.688164 L201.352705,141.024178 Z" id="https:/zubia.com" fill="url(#linearGradient-17)"></path>
                        <path d="M252.045624,29.8963482 L298.95374,55.4102565 L298.95374,58.6936951 C298.95374,60.4726937 297.969817,62.1057905 296.397062,62.9372207 L242.204067,91.5861111 C239.329545,93.1057145 235.8812,93.0670262 233.041496,91.4833127 L188.931761,66.8831533 C187.41178,66.0354543 186.469725,64.4314108 186.469725,62.6910269 L186.469725,59.4580075 L243.001951,29.8268042 C245.839293,28.3396194 249.231489,28.3657047 252.045624,29.8963482 Z" id="Rectangle" fill="url(#linearGradient-18)" transform="translate(242.711733, 60.714334) scale(-1, 1) translate(-242.711733, -60.714334) "></path>
                        <path d="M298.95374,63.3476713 L298.95374,68.6972684 L295.70091,66.8831533 C294.180929,66.0354543 293.238874,64.4314108 293.238874,62.6910269 L293.238874,59.4580075 L293.238874,59.4580075 C295.387076,58.6109477 297.815216,59.6657318 298.662276,61.8139338 C298.854862,62.3023463 298.95374,62.8226606 298.95374,63.3476713 Z" id="Rectangle" fill="url(#linearGradient-19)" transform="translate(296.096307, 63.931347) scale(-1, 1) translate(-296.096307, -63.931347) "></path>
                        <path d="M257.058685,76.8009093 L257.058685,89.8258605 L253.728948,91.5861111 C250.854426,93.1057145 247.406082,93.0670262 244.566377,91.4833127 L239.889663,88.8750919 L239.889663,76.4611043 C239.889663,73.8101375 242.038696,71.6611043 244.689663,71.6611043 C244.761448,71.6611043 244.833225,71.6627147 244.904938,71.6659342 L252.47396,72.0057391 C255.03863,72.1208779 257.058685,74.2336555 257.058685,76.8009093 Z" id="Rectangle-Copy-9" fill="url(#linearGradient-20)" transform="translate(248.474174, 82.180082) scale(-1, 1) translate(-248.474174, -82.180082) "></path>
                        <path d="M252.114236,26.6050835 L296.493415,51.1557676 C298.813091,52.4390183 299.653279,55.3597667 298.370028,57.6794418 C297.918099,58.4963738 297.237741,59.1637808 296.412276,59.5999281 L242.224964,88.2306219 C239.351778,89.7487136 235.905648,89.7102497 233.067062,88.1284062 L188.940416,63.5381896 C186.624736,62.2477432 185.79362,59.3244003 187.084067,57.0087205 C187.535142,56.1992754 188.210872,55.537699 189.029682,55.1038569 L242.972588,26.5225235 C245.838151,25.0042213 249.276562,25.0352743 252.114236,26.6050835 Z" id="Rectangle" fill="url(#linearGradient-21)" transform="translate(242.723437, 57.373979) scale(-1, 1) translate(-242.723437, -57.373979) "></path>
                        <path d="M336.045624,74.8963482 L382.95374,100.410257 L382.95374,103.693695 C382.95374,105.472694 381.969817,107.10579 380.397062,107.937221 L326.204067,136.586111 C323.329545,138.105715 319.8812,138.067026 317.041496,136.483313 L272.931761,111.883153 C271.41178,111.035454 270.469725,109.431411 270.469725,107.691027 L270.469725,104.458008 L327.001951,74.8268042 C329.839293,73.3396194 333.231489,73.3657047 336.045624,74.8963482 Z" id="Rectangle" fill="url(#linearGradient-22)" transform="translate(326.711733, 105.714334) scale(-1, 1) translate(-326.711733, -105.714334) "></path>
                        <path d="M382.95374,109.708327 L382.95374,114.553386 L378.165834,111.883153 C376.645853,111.035454 375.703798,109.431411 375.703798,107.691027 L375.703798,104.458008 L375.703798,104.458008 C378.603469,103.505944 381.725917,105.084793 382.67798,107.984464 C382.860659,108.540844 382.95374,109.122724 382.95374,109.708327 Z" id="Rectangle" fill="url(#linearGradient-23)" transform="translate(379.328769, 109.367069) scale(-1, 1) translate(-379.328769, -109.367069) "></path>
                        <path d="M331.261082,11.5525427 L377.67065,39.1305577 C379.569788,40.2590845 380.194491,42.7134911 379.065964,44.6126284 C378.705519,45.2192016 378.19104,45.7196383 377.574726,46.0631624 L313.399046,81.8337167 C310.28632,83.5687033 306.485496,83.5161124 303.421965,81.6956667 L257.012397,54.1176517 C255.11326,52.989125 254.488556,50.5347183 255.617083,48.635581 C255.977528,48.0290078 256.492008,47.5285711 257.108321,47.1850471 L321.284001,11.4144927 C324.396727,9.67950612 328.197551,9.73209702 331.261082,11.5525427 Z" id="Rectangle" fill="url(#linearGradient-4)" opacity="0.400000006" transform="translate(317.341524, 46.624105) scale(-1, 1) translate(-317.341524, -46.624105) "></path>
                        <path d="M339.221447,114.728782 L339.221447,135.881866 L337.886111,136.587476 C335.01186,138.106268 331.564246,138.067275 328.725081,136.483862 L325.884619,134.899726 L325.884619,115.718997 C325.884619,113.541555 327.350313,111.636882 329.455111,111.079136 L333.191939,110.088921 C335.754464,109.409883 338.38227,110.93675 339.061308,113.499275 C339.167618,113.900464 339.221447,114.313747 339.221447,114.728782 Z" id="Rectangle-Copy-6" fill="url(#linearGradient-24)" transform="translate(332.553033, 123.813472) scale(-1, 1) translate(-332.553033, -123.813472) "></path>
                        <path d="M277.118108,100.410257 L277.118108,103.693101 C277.118108,105.472413 276.133842,107.105743 274.560659,107.937034 L270.469725,110.098738 L270.469725,107.058639 C270.469725,103.386839 273.446308,100.410257 277.118108,100.410257 Z" id="Rectangle" fill="url(#linearGradient-25)" opacity="0.5" transform="translate(273.793917, 105.254497) scale(-1, 1) translate(-273.793917, -105.254497) "></path>
                        <g id="Rectangle" transform="translate(326.723437, 102.373979) scale(-1, 1) translate(-326.723437, -102.373979) ">
                            <use fill="black" fill-opacity="1" filter="url(#filter-28)" xlink:href="#path-27"></use>
                            <use fill="url(#linearGradient-26)" fill-rule="evenodd" xlink:href="#path-27"></use>
                        </g>
                        <path d="M336.114236,71.6050835 L380.493415,96.1557676 C382.813091,97.4390183 383.653279,100.359767 382.370028,102.679442 C381.918099,103.496374 381.237741,104.163781 380.412276,104.599928 L326.224964,133.230622 C323.351778,134.748714 319.905648,134.71025 317.067062,133.128406 L272.940416,108.53819 C270.624736,107.247743 269.79362,104.3244 271.084067,102.00872 C271.535142,101.199275 272.210872,100.537699 273.029682,100.103857 L326.972588,71.5225235 C329.838151,70.0042213 333.276562,70.0352743 336.114236,71.6050835 Z" id="Rectangle" fill="url(#linearGradient-26)" transform="translate(326.723437, 102.373979) scale(-1, 1) translate(-326.723437, -102.373979) "></path>
                        <path d="M338.05501,77.6585024 L331.26119,81.6956026 C328.197601,83.5160827 324.396697,83.5686389 321.283944,81.8335608 L310.106011,75.6028734 L317.332638,71.6050835 C320.170312,70.0352743 323.608723,70.0042213 326.474286,71.5225235 L338.05501,77.6585024 Z" id="Path" fill="url(#linearGradient-29)"></path>
                    </g>
                </g>
            </g>
        </g>
    </g>
</svg>